Coordinates
version=1
nRows=19
nColumns=24
inDegrees=yes

Units are S.I. units (second, meters, Newtons, ...)
Angles are in degrees.

endheader
time	pelvis_tilt	pelvis_list	pelvis_rotation	pelvis_tx	pelvis_ty	pelvis_tz	hip_flexion_r	hip_adduction_r	hip_rotation_r	knee_angle_r	ankle_angle_r	subtalar_angle_r	mtp_angle_r	hip_flexion_l	hip_adduction_l	hip_rotation_l	knee_angle_l	ankle_angle_l	subtalar_angle_l	mtp_angle_l	lumbar_extension	lumbar_bending	lumbar_rotation
      0.89200000	    -12.76667001	     -2.30223674	     -3.97401226	     -0.13130345	      0.96608086	      0.32873488	      1.62413616	      8.63526196	      6.02464676	    -12.98259000	      1.56810842	      2.91626384	    -42.30798219	     34.16721549	     -1.70460739	     -4.20586791	      0.87930532	    -16.67053924	     -7.53376733	     -8.25772727	     24.39463242	      3.64582483	      5.51071787
      0.89616667	    -12.70210499	     -2.28810593	     -4.07527309	     -0.12515333	      0.96577728	      0.32893749	      1.53276962	      8.57990901	      5.94889430	    -13.62992971	      1.46097402	      3.02598055	    -42.29861633	     34.04555521	     -1.71963869	     -4.03669454	      0.56007119	    -16.72904144	     -7.54160947	     -8.26378425	     24.47816310	      3.59105408	      5.51916089
      0.90033333	    -12.68919710	     -2.32679320	     -3.98922534	     -0.11906393	      0.96530469	      0.32826661	      1.55829120	      8.49349266	      5.40319936	    -14.35078570	      1.47115231	      3.88217499	    -42.22279711	     34.04569289	     -1.60164279	     -3.62980700	      0.09912093	    -16.77808365	     -7.84116988	     -8.29788345	     24.40099475	      3.67107356	      5.54339913
      0.90450000	    -12.59727019	     -2.30758931	     -4.09605169	     -0.11286264	      0.96511518	      0.32848864	      1.49935284	      8.42136411	      5.30453016	    -15.10180113	      1.32904903	      4.01034618	    -42.21179173	     33.87046451	     -1.61615630	     -3.46639452	     -0.26929717	    -16.87224383	     -7.85079685	     -8.30192974	     24.47973960	      3.60428990	      5.55390138
      0.90866667	    -12.56534373	     -2.26650624	     -4.03635747	     -0.10650794	      0.96479373	      0.32757773	      1.56341039	      8.18747409	      4.68462576	    -15.94234507	      1.39186248	      5.14812754	    -42.05802333	     33.75405203	     -1.38617455	     -2.96365188	     -0.63311209	    -17.15174746	     -8.55718102	     -8.34098027	     24.45929791	      3.67778284	      5.59350482
      0.91283333	    -12.46185869	     -2.23192829	     -4.05086250	     -0.10022894	      0.96465798	      0.32720923	      1.57851499	      8.01696561	      4.27308246	    -16.81284998	      1.23594547	      5.75189610	    -41.88791792	     33.56954067	     -1.26607387	     -2.80610718	     -1.02863623	    -17.50409095	     -9.01680731	     -8.37343297	     24.38971419	      3.64217677	      5.61729484
      0.91700000	    -12.36311780	     -2.22043702	     -4.05988895	     -0.09399749	      0.96452577	      0.32702483	      1.63745796	      7.89647645	      3.88106934	    -17.73267183	      0.96895368	      6.16090527	    -41.82239965	     33.41315475	     -1.19914983	     -2.80273355	     -1.49992446	    -17.71809804	     -9.12126405	     -8.38031982	     24.28804578	      3.56540196	      5.64346761
      0.92116667	    -12.26330942	     -2.18476144	     -4.06592969	     -0.08766367	      0.96444634	      0.32667328	      1.73114075	      7.71449550	      3.43134279	    -18.70159924	      0.66228743	      6.80113413	    -41.73374070	     33.21527107	     -1.08222946	     -2.74573532	     -1.90529242	    -18.06095576	     -9.39774624	     -8.38393198	     24.22181275	      3.53327331	      5.67682035
      0.92533333	    -12.14081566	     -2.08145692	     -4.09954766	     -0.08118967	      0.96448981	      0.32606914	      1.84088634	      7.40438335	      2.97665318	    -19.76404332	      0.47006215	      7.63637172	    -41.49508119	     32.90199305	     -0.86061891	     -2.46988027	     -2.14188601	    -18.68903780	    -10.26839508	     -8.37545552	     24.21228299	      3.47380930	      5.74833909
      0.92950000	    -12.04040580	     -2.01832914	     -4.16170773	     -0.07487716	      0.96450167	      0.32597346	      2.03409933	      7.20739015	      2.56223451	    -20.90635227	      0.11810036	      7.92366007	    -41.46095588	     32.66527949	     -0.77705562	     -2.51448274	     -2.52489836	    -18.88593407	    -10.25246697	     -8.37165864	     24.11337866	      3.40014645	      5.75792217
      0.93366667	    -11.91074283	     -1.94050974	     -4.15178999	     -0.06842582	      0.96459710	      0.32534762	      2.20896730	      6.91471239	      2.09876943	    -22.00642672	     -0.44920457	      8.85046686	    -41.28574745	     32.37213320	     -0.57140757	     -2.44410364	     -2.79291592	    -19.63513034	    -10.96557976	     -8.34957791	     24.10877678	      3.37415823	      5.80472284
      0.93783333	    -11.78197109	     -1.89209751	     -4.11672661	     -0.06210642	      0.96468388	      0.32492213	      2.44459508	      6.68657330	      1.56846717	    -23.24055441	     -0.87241389	      9.31906057	    -41.17726853	     32.12801453	     -0.42543531	     -2.54744387	     -3.18408970	    -20.05251637	    -11.30470725	     -8.32858352	     23.96507659	      3.22940591	      5.84888283
      0.94200000	    -11.64577119	     -1.75001174	     -4.18434481	     -0.05560934	      0.96490477	      0.32440872	      2.71380273	      6.30918959	      1.15398218	    -24.50451120	     -1.49408699	     10.01959411	    -40.98525964	     31.75325296	     -0.19900325	     -2.43328002	     -3.34232054	    -20.78785833	    -12.01911293	     -8.28195919	     23.95797749	      3.17919964	      5.88234651
      0.94616667	    -11.52055142	     -1.65338603	     -4.20966708	     -0.04927464	      0.96507790	      0.32417125	      3.04839747	      6.02980280	      0.70171471	    -25.89711299	     -1.92399876	     10.29539758	    -40.95342038	     31.45582250	     -0.05748090	     -2.48520724	     -3.67330485	    -20.99925428	    -12.01632609	     -8.27089635	     23.82479652	      3.04477414	      5.89771139
      0.95033333	    -11.38118825	     -1.52434614	     -4.19183960	     -0.04283355	      0.96531476	      0.32335102	      3.39527415	      5.62325731	      0.19601934	    -27.24188702	     -2.72203670	     11.01726270	    -40.67799972	     31.12176974	      0.22098426	     -2.44074082	     -3.86269463	    -21.98626307	    -13.14838754	     -8.17914615	     23.78578473	      2.88637812	      5.95545401
      0.95450000	    -11.23716118	     -1.40610868	     -4.20916624	     -0.03649817	      0.96559038	      0.32304659	      3.78392496	      5.29593506	     -0.21539937	    -28.71741815	     -3.25229233	     11.32934438	    -40.65213349	     30.79234312	      0.38824070	     -2.48063777	     -4.17549894	    -22.17404887	    -13.07848366	     -8.16530025	     23.66152874	      2.78823559	      5.95536522
      0.95866667	    -11.12231631	     -1.27765984	     -4.23880536	     -0.03016943	      0.96584967	      0.32247212	      4.23973236	      4.91031060	     -0.54434166	    -30.09955639	     -4.43478002	     12.01695467	    -40.51964942	     30.49245778	      0.60182284	     -2.53171833	     -4.41962319	    -22.85470698	    -13.72250979	     -8.10478571	     23.66281996	      2.68263646	      5.95493376
      0.96283333	    -10.96665444	     -1.14054137	     -4.22540401	     -0.02387377	      0.96618042	      0.32206211	      4.68925705	      4.53913764	     -0.95538143	    -31.67261625	     -4.95975875	     12.26300167	    -40.49718874	     30.15810536	      0.80561078	     -2.54679067	     -4.74022401	    -23.05499576	    -13.70149994	     -8.09000128	     23.50469438	      2.50860276	      5.96791730
      0.96700000	    -10.86503417	     -0.98769057	     -4.24705623	     -0.01760057	      0.96646015	      0.32139037	      5.23590111	      4.10734920	     -1.26603260	    -33.12402580	     -6.28760547	     12.79551681	    -40.38722819	     29.87813362	      1.05437288	     -2.58360244	     -4.99779902	    -23.70635865	    -14.47870161	     -8.02489890	     23.50818494	      2.35047674	      5.95993464
